<?xml version="1.0" encoding="UTF-8" standalone="no"?>
<svg
   xmlns:dc="http://purl.org/dc/elements/1.1/"
   xmlns:cc="http://creativecommons.org/ns#"
   xmlns:rdf="http://www.w3.org/1999/02/22-rdf-syntax-ns#"
   xmlns:svg="http://www.w3.org/2000/svg"
   xmlns="http://www.w3.org/2000/svg"
   xmlns:sodipodi="http://sodipodi.sourceforge.net/DTD/sodipodi-0.dtd"
   xmlns:inkscape="http://www.inkscape.org/namespaces/inkscape"
   width="100"
   height="100"
   viewBox="0 0 26.458333 26.458334"
   version="1.1"
   id="svg1633"
   inkscape:export-filename="C:\Users\princejha\Desktop\react\portfoliowebsite\public\mylogo.png"
   inkscape:export-xdpi="95.919998"
   inkscape:export-ydpi="95.919998"
   inkscape:version="1.0.1 (3bc2e813f5, 2020-09-07)"
   sodipodi:docname="mylogo1.svg">
  <defs
     id="defs1627">
    <clipPath
       clipPathUnits="userSpaceOnUse"
       id="clipPath1534">
      <path
         sodipodi:end="2.2030181"
         sodipodi:start="2.2060438"
         sodipodi:ry="25.217573"
         sodipodi:rx="25.217573"
         sodipodi:cy="409.41574"
         sodipodi:cx="481.99957"
         sodipodi:type="arc"
         id="path1536"
         style="fill:#2b1100;fill-opacity:1;fill-rule:nonzero;stroke:none;stroke-width:5.20412;stroke-linecap:round;stroke-linejoin:miter;stroke-miterlimit:4;stroke-dasharray:none;stroke-dashoffset:0;stroke-opacity:0.743719;paint-order:fill markers stroke"
         sodipodi:arc-type="arc"
         sodipodi:open="true" />
    </clipPath>
    <filter
       inkscape:collect="always"
       style="color-interpolation-filters:sRGB"
       id="filter1373"
       x="-1.2179501"
       width="3.4359002"
       y="-0.60897505"
       height="2.2179501">
      <feGaussianBlur
         inkscape:collect="always"
         stdDeviation="5.0709951"
         id="feGaussianBlur1375" />
    </filter>
    <clipPath
       clipPathUnits="userSpaceOnUse"
       id="clipPath1661">
      <path
         sodipodi:end="2.2030181"
         sodipodi:start="2.2060438"
         sodipodi:ry="25.217573"
         sodipodi:rx="25.217573"
         sodipodi:cy="409.41574"
         sodipodi:cx="481.99957"
         sodipodi:type="arc"
         id="path1659"
         style="fill:#2b1100;fill-opacity:1;fill-rule:nonzero;stroke:none;stroke-width:5.20412;stroke-linecap:round;stroke-linejoin:miter;stroke-miterlimit:4;stroke-dasharray:none;stroke-dashoffset:0;stroke-opacity:0.743719;paint-order:fill markers stroke"
         sodipodi:arc-type="arc"
         sodipodi:open="true"
         d="m 467.03605,429.71399 a 25.217573,25.217573 0 0 1 -5.34604,-35.24641 25.217573,25.217573 0 0 1 35.24236,-5.37271 25.217573,25.217573 0 0 1 5.39936,35.23829 25.217573,25.217573 0 0 1 -35.23419,5.42602" />
    </clipPath>
    <clipPath
       clipPathUnits="userSpaceOnUse"
       id="clipPath1681">
      <path
         sodipodi:end="2.2030181"
         sodipodi:start="2.2060438"
         sodipodi:ry="25.217573"
         sodipodi:rx="25.217573"
         sodipodi:cy="409.41574"
         sodipodi:cx="481.99957"
         sodipodi:type="arc"
         id="path1679"
         style="fill:#2b1100;fill-opacity:1;fill-rule:nonzero;stroke:none;stroke-width:5.20412;stroke-linecap:round;stroke-linejoin:miter;stroke-miterlimit:4;stroke-dasharray:none;stroke-dashoffset:0;stroke-opacity:0.743719;paint-order:fill markers stroke"
         sodipodi:arc-type="arc"
         sodipodi:open="true"
         d="m 467.03605,429.71399 a 25.217573,25.217573 0 0 1 -5.34604,-35.24641 25.217573,25.217573 0 0 1 35.24236,-5.37271 25.217573,25.217573 0 0 1 5.39936,35.23829 25.217573,25.217573 0 0 1 -35.23419,5.42602" />
    </clipPath>
  </defs>
  <sodipodi:namedview
     id="base"
     pagecolor="#ffffff"
     bordercolor="#666666"
     borderopacity="1.0"
     inkscape:pageopacity="0.0"
     inkscape:pageshadow="2"
     inkscape:zoom="2.4813632"
     inkscape:cx="38.875656"
     inkscape:cy="62.209246"
     inkscape:document-units="mm"
     inkscape:current-layer="layer1"
     inkscape:document-rotation="0"
     showgrid="false"
     units="px"
     showborder="true"
     inkscape:showpageshadow="false"
     inkscape:snap-global="false"
     inkscape:window-width="1024"
     inkscape:window-height="705"
     inkscape:window-x="-8"
     inkscape:window-y="-8"
     inkscape:window-maximized="1" />
  <metadata
     id="metadata1630">
    <rdf:RDF>
      <cc:Work
         rdf:about="">
        <dc:format>image/svg+xml</dc:format>
        <dc:type
           rdf:resource="http://purl.org/dc/dcmitype/StillImage" />
        <dc:title></dc:title>
      </cc:Work>
    </rdf:RDF>
  </metadata>
  <g
     inkscape:label="Layer 1"
     inkscape:groupmode="layer"
     id="layer1">
    <g
       id="g1878">
      <g
         id="g1532"
         transform="matrix(0.42071882,0,0,0.42071882,-189.51485,-158.68209)"
         clip-path="url(#clipPath1534)"
         style="stroke-width:2.37688">
        <path
           sodipodi:end="2.2030181"
           sodipodi:start="2.2060438"
           sodipodi:ry="25.217575"
           sodipodi:rx="25.217575"
           sodipodi:cy="409.13815"
           sodipodi:cx="481.86148"
           sodipodi:type="arc"
           id="path62"
           style="fill:#ff6600;fill-opacity:1;fill-rule:nonzero;stroke:none;stroke-width:12.3695;stroke-linecap:round;stroke-linejoin:miter;stroke-miterlimit:4;stroke-dasharray:none;stroke-dashoffset:0;stroke-opacity:0.743719;paint-order:fill markers stroke"
           sodipodi:arc-type="arc"
           sodipodi:open="true"
           d="m 466.89796,429.43641 a 25.217575,25.217575 0 0 1 -5.34605,-35.24642 25.217575,25.217575 0 0 1 35.24237,-5.3727 25.217575,25.217575 0 0 1 5.39936,35.23828 25.217575,25.217575 0 0 1 -35.2342,5.42602" />
        <ellipse
           style="opacity:0.722581;fill:#ffb380;stroke-width:1.18844;stroke-linecap:round;paint-order:stroke markers fill;filter:url(#filter1373);stop-color:#000000"
           id="ellipse1307"
           cx="490.18854"
           cy="399.70078"
           rx="4.9962592"
           ry="9.9925184" />
        <ellipse
           style="opacity:0.722581;fill:#ffb380;stroke-width:1.18844;stroke-linecap:round;paint-order:stroke markers fill;filter:url(#filter1373);stop-color:#000000"
           id="ellipse1519"
           cx="491.29883"
           cy="413.57928"
           rx="4.9962592"
           ry="9.9925184" />
        <ellipse
           style="opacity:0.722581;fill:#ffb380;stroke-width:1.18844;stroke-linecap:round;paint-order:stroke markers fill;filter:url(#filter1373);stop-color:#000000"
           id="ellipse1523"
           cx="496.85022"
           cy="405.80731"
           rx="4.9962592"
           ry="9.9925184" />
        <ellipse
           style="opacity:0.722581;fill:#ffb380;stroke-width:1.18844;stroke-linecap:round;paint-order:stroke markers fill;filter:url(#filter1373);stop-color:#000000"
           id="ellipse1525"
           cx="481.86145"
           cy="409.13815"
           rx="4.9962592"
           ry="9.9925184" />
      </g>
      <g
         id="g1569"
         style="stroke-width:2.37688"
         transform="matrix(0.42071882,0,0,0.42071882,-160.02848,-151.67535)">
        <path
           id="path76"
           style="font-style:normal;font-variant:normal;font-weight:normal;font-stretch:normal;font-size:201.989px;line-height:1.25;font-family:'Arista 2.0 Alternate';-inkscape-font-specification:'Arista 2.0 Alternate, Normal';font-variant-ligatures:normal;font-variant-caps:normal;font-variant-numeric:normal;font-variant-east-asian:normal;letter-spacing:0px;word-spacing:0px;fill:#ffffff;stroke-width:2.00524"
           d="m 411.89177,378.67464 c -0.18575,0 -0.37147,0.0132 -0.55722,0.0397 -1.19409,0.13267 -2.30854,0.47766 -3.34342,1.0349 -1.06141,0.55725 -1.96357,1.27369 -2.70656,2.14935 -0.76953,0.84913 -1.36665,1.83098 -1.79121,2.94546 -0.4511,1.08795 -0.67657,2.24224 -0.67657,3.46286 v 7.04508 c 0,0.32173 0.054,0.62187 0.161,0.9008 a 2.7846932,2.7846932 0 0 0 2.74302,2.30525 2.7846932,2.7846932 0 0 0 2.508,-1.57462 l 0.0808,0.0403 c 0.63685,0.29189 1.28699,0.51745 1.95037,0.67667 0.68991,0.15921 1.41963,0.23879 2.18916,0.23879 1.99014,0 3.76802,-0.53072 5.3336,-1.59213 1.56558,-1.08795 2.73306,-2.48109 3.50258,-4.17935 0.26535,-0.61031 0.47764,-1.23389 0.63685,-1.87073 0.13267,-0.63685 0.19908,-1.30017 0.19908,-1.99009 0,-0.68991 -0.0664,-1.35333 -0.19908,-1.99018 -0.15921,-0.63685 -0.3715,-1.26042 -0.63685,-1.87074 -0.76952,-1.72479 -1.937,-3.11793 -3.50258,-4.17934 -1.56558,-1.06141 -3.34346,-1.59203 -5.3336,-1.59203 z m 0.59714,5.17434 c 0.58377,0 1.14095,0.11942 1.67165,0.35824 0.53071,0.23882 1.0084,0.57053 1.43297,0.99509 0.39803,0.39803 0.71646,0.87562 0.95527,1.43287 0.23882,0.5307 0.35814,1.08798 0.35814,1.67175 0,0.61032 -0.11932,1.19405 -0.35814,1.7513 -0.26535,0.5307 -0.59706,0.99511 -0.99509,1.39314 -0.42456,0.39803 -0.90226,0.71646 -1.43296,0.95528 -0.53071,0.23882 -1.0746,0.35814 -1.63184,0.35814 -0.61032,0 -1.18088,-0.10614 -1.71158,-0.31843 -0.55724,-0.23881 -1.03483,-0.55714 -1.43286,-0.95517 -0.39803,-0.39803 -0.71646,-0.86244 -0.95528,-1.39315 -0.23882,-0.55724 -0.35824,-1.15426 -0.35824,-1.79111 0,-0.58377 0.11942,-1.14105 0.35824,-1.67175 0.23882,-0.55725 0.57043,-1.03484 0.99499,-1.43287 0.39803,-0.42456 0.87572,-0.75627 1.43297,-0.99509 0.5307,-0.23882 1.08798,-0.35824 1.67176,-0.35824 z m -6.7681,16.87492 a 2.7846932,2.7846932 0 0 0 -2.78467,2.78467 2.7846932,2.7846932 0 0 0 2.78467,2.78477 2.7846932,2.7846932 0 0 0 2.78467,-2.78477 2.7846932,2.7846932 0 0 0 -2.78467,-2.78467 z" />
        <g
           id="g1560"
           transform="matrix(0.1744746,0,0,0.1744746,328.37233,316.88778)"
           clip-path="url(#clipPath1534)"
           style="stroke-width:13.6231">
          <path
             sodipodi:end="2.2030181"
             sodipodi:start="2.2060438"
             sodipodi:ry="25.217575"
             sodipodi:rx="25.217575"
             sodipodi:cy="409.13815"
             sodipodi:cx="481.86148"
             sodipodi:type="arc"
             id="path1550"
             style="fill:#ff6600;fill-opacity:1;fill-rule:nonzero;stroke:none;stroke-width:70.896;stroke-linecap:round;stroke-linejoin:miter;stroke-miterlimit:4;stroke-dasharray:none;stroke-dashoffset:0;stroke-opacity:0.743719;paint-order:fill markers stroke"
             sodipodi:arc-type="arc"
             sodipodi:open="true"
             d="m 466.89796,429.43641 a 25.217575,25.217575 0 0 1 -5.34605,-35.24642 25.217575,25.217575 0 0 1 35.24237,-5.3727 25.217575,25.217575 0 0 1 5.39936,35.23828 25.217575,25.217575 0 0 1 -35.2342,5.42602" />
          <ellipse
             style="opacity:0.722581;fill:#ffb380;stroke-width:6.81153;stroke-linecap:round;paint-order:stroke markers fill;filter:url(#filter1373);stop-color:#000000"
             id="ellipse1552"
             cx="490.18854"
             cy="399.70078"
             rx="4.9962592"
             ry="9.9925184" />
          <ellipse
             style="opacity:0.722581;fill:#ffb380;stroke-width:6.81153;stroke-linecap:round;paint-order:stroke markers fill;filter:url(#filter1373);stop-color:#000000"
             id="ellipse1554"
             cx="491.29883"
             cy="413.57928"
             rx="4.9962592"
             ry="9.9925184" />
          <ellipse
             style="opacity:0.722581;fill:#ffb380;stroke-width:6.81153;stroke-linecap:round;paint-order:stroke markers fill;filter:url(#filter1373);stop-color:#000000"
             id="ellipse1556"
             cx="496.85022"
             cy="405.80731"
             rx="4.9962592"
             ry="9.9925184" />
          <ellipse
             style="opacity:0.722581;fill:#ffb380;stroke-width:6.81153;stroke-linecap:round;paint-order:stroke markers fill;filter:url(#filter1373);stop-color:#000000"
             id="ellipse1558"
             cx="481.86145"
             cy="409.13815"
             rx="4.9962592"
             ry="9.9925184" />
        </g>
      </g>
    </g>
  </g>
</svg>
